<svg xmlns="http://www.w3.org/2000/svg" width="195" height="34.153" viewBox="0 0 195 34.153">
  <g id="Grupo_1" data-name="Grupo 1" transform="translate(-36.929 -37.466)">
    <path id="Trazado_125" data-name="Trazado 125" d="M77.81,56.65l1.049-.16a.766.766,0,0,0,.269.459.925.925,0,0,0,.572.157,1.045,1.045,0,0,0,.609-.148.336.336,0,0,0,.137-.28.278.278,0,0,0-.076-.2.835.835,0,0,0-.348-.137,5.574,5.574,0,0,1-1.6-.51,1.014,1.014,0,0,1-.468-.889,1.092,1.092,0,0,1,.4-.862,1.876,1.876,0,0,1,1.253-.35,2.187,2.187,0,0,1,1.2.266,1.363,1.363,0,0,1,.542.783l-.98.183a.607.607,0,0,0-.241-.356.874.874,0,0,0-.505-.123,1.137,1.137,0,0,0-.593.114.244.244,0,0,0-.12.211.228.228,0,0,0,.1.19,3.915,3.915,0,0,0,.977.294,2.921,2.921,0,0,1,1.167.465.966.966,0,0,1,.329.778,1.19,1.19,0,0,1-.454.931,2.016,2.016,0,0,1-1.341.391,2.213,2.213,0,0,1-1.276-.326,1.505,1.505,0,0,1-.614-.884" transform="translate(31.071 12.363)" fill="#211915" fill-rule="evenodd"/>
    <path id="Trazado_126" data-name="Trazado 126" d="M81.357,55.8a1.3,1.3,0,0,0,.28.9A.9.9,0,0,0,83,56.7a1.334,1.334,0,0,0,.275-.908A1.306,1.306,0,0,0,83,54.9a.906.906,0,0,0-1.368,0,1.3,1.3,0,0,0-.28.9m-1.07-.056a2.135,2.135,0,0,1,.257-1.007,1.738,1.738,0,0,1,.725-.743,2.126,2.126,0,0,1,1.045-.259,1.961,1.961,0,0,1,1.464.583,2.012,2.012,0,0,1,.574,1.47,2.033,2.033,0,0,1-.579,1.485,1.943,1.943,0,0,1-1.452.59,2.276,2.276,0,0,1-1.031-.246,1.665,1.665,0,0,1-.746-.718,2.4,2.4,0,0,1-.257-1.155" transform="translate(32.954 12.363)" fill="#211915" fill-rule="evenodd"/>
    <rect id="Rectángulo_1517" data-name="Rectángulo 1517" width="1.04" height="5.44" transform="translate(118.128 64.682)" fill="#211915"/>
    <path id="Trazado_127" data-name="Trazado 127" d="M86.873,57.722v-.59a1.542,1.542,0,0,1-.565.5,1.568,1.568,0,0,1-.743.188,1.446,1.446,0,0,1-.713-.176,1.014,1.014,0,0,1-.458-.491,2.175,2.175,0,0,1-.143-.875v-2.5h1.042v1.815a4.876,4.876,0,0,0,.058,1.023.556.556,0,0,0,.209.3.654.654,0,0,0,.387.111.838.838,0,0,0,.48-.148.761.761,0,0,0,.29-.364,4.325,4.325,0,0,0,.077-1.067V53.78h1.042v3.942Z" transform="translate(35.967 12.399)" fill="#211915" fill-rule="evenodd"/>
    <path id="Trazado_128" data-name="Trazado 128" d="M90.433,54.987l-1.026.183a.731.731,0,0,0-.236-.461.709.709,0,0,0-.475-.155.779.779,0,0,0-.623.269,1.381,1.381,0,0,0-.232.9,1.6,1.6,0,0,0,.236.993.771.771,0,0,0,.632.29.7.7,0,0,0,.486-.169,1.029,1.029,0,0,0,.266-.583l1.024.174a1.813,1.813,0,0,1-.609,1.068,1.9,1.9,0,0,1-1.214.361,1.8,1.8,0,0,1-1.376-.547,2.493,2.493,0,0,1,0-3.034,1.829,1.829,0,0,1,1.394-.546,1.906,1.906,0,0,1,1.142.312,1.72,1.72,0,0,1,.611.943" transform="translate(37.881 12.363)" fill="#211915" fill-rule="evenodd"/>
    <path id="Trazado_129" data-name="Trazado 129" d="M89.3,54.426h1.04v3.942H89.3Zm0-1.5h1.04V53.9H89.3Z" transform="translate(39.807 11.753)" fill="#211915" fill-rule="evenodd"/>
    <path id="Trazado_130" data-name="Trazado 130" d="M91.432,55.8a1.3,1.3,0,0,0,.28.9.9.9,0,0,0,1.368,0,1.334,1.334,0,0,0,.275-.908,1.306,1.306,0,0,0-.275-.891.906.906,0,0,0-1.368,0,1.3,1.3,0,0,0-.28.9m-1.07-.056a2.115,2.115,0,0,1,.257-1.007,1.744,1.744,0,0,1,.723-.743,2.133,2.133,0,0,1,1.047-.259,1.961,1.961,0,0,1,1.464.583,2.012,2.012,0,0,1,.574,1.47,2.033,2.033,0,0,1-.579,1.485,1.946,1.946,0,0,1-1.452.59,2.276,2.276,0,0,1-1.031-.246,1.665,1.665,0,0,1-.746-.718,2.377,2.377,0,0,1-.257-1.155" transform="translate(40.611 12.363)" fill="#211915" fill-rule="evenodd"/>
    <path id="Trazado_131" data-name="Trazado 131" d="M96.732,57.759H95.69v-2.01a3.042,3.042,0,0,0-.067-.824.572.572,0,0,0-.218-.29.638.638,0,0,0-.364-.1.841.841,0,0,0-.491.148.748.748,0,0,0-.3.392,3.39,3.39,0,0,0-.081.9v1.783h-1.04V53.816H94.1V54.4a1.631,1.631,0,0,1,1.94-.539,1.062,1.062,0,0,1,.435.317,1.166,1.166,0,0,1,.2.438,3.222,3.222,0,0,1,.058.7Z" transform="translate(42.716 12.363)" fill="#211915" fill-rule="evenodd"/>
    <path id="Trazado_132" data-name="Trazado 132" d="M98.249,55.457a1.013,1.013,0,0,0-.232-.69.748.748,0,0,0-1.1.014.965.965,0,0,0-.218.676Zm-.06,1.056,1.042.176a1.717,1.717,0,0,1-.634.871,1.864,1.864,0,0,1-1.082.3A1.758,1.758,0,0,1,96,57.185a2.259,2.259,0,0,1-.391-1.361,2.178,2.178,0,0,1,.512-1.537,1.681,1.681,0,0,1,1.294-.556,1.744,1.744,0,0,1,1.387.583,2.575,2.575,0,0,1,.484,1.781h-2.6a1.059,1.059,0,0,0,.252.722.781.781,0,0,0,.6.257.627.627,0,0,0,.41-.132.826.826,0,0,0,.252-.429" transform="translate(44.596 12.363)" fill="#211915" fill-rule="evenodd"/>
    <path id="Trazado_133" data-name="Trazado 133" d="M97.97,56.65l1.049-.16a.768.768,0,0,0,.271.459.923.923,0,0,0,.57.157,1.045,1.045,0,0,0,.609-.148.331.331,0,0,0,.137-.28.277.277,0,0,0-.074-.2.835.835,0,0,0-.348-.137,5.574,5.574,0,0,1-1.6-.51,1.015,1.015,0,0,1-.47-.889,1.1,1.1,0,0,1,.4-.862,1.884,1.884,0,0,1,1.255-.35,2.176,2.176,0,0,1,1.2.266,1.357,1.357,0,0,1,.544.783l-.982.183a.6.6,0,0,0-.241-.356.867.867,0,0,0-.505-.123,1.146,1.146,0,0,0-.593.114.246.246,0,0,0-.118.211.231.231,0,0,0,.1.19,3.941,3.941,0,0,0,.979.294,2.921,2.921,0,0,1,1.167.465.965.965,0,0,1,.327.778,1.19,1.19,0,0,1-.454.931,2.009,2.009,0,0,1-1.341.391,2.207,2.207,0,0,1-1.274-.326,1.508,1.508,0,0,1-.616-.884" transform="translate(46.393 12.363)" fill="#211915" fill-rule="evenodd"/>
    <path id="Trazado_134" data-name="Trazado 134" d="M104.253,55.457a1,1,0,0,0-.234-.69.746.746,0,0,0-1.1.014.957.957,0,0,0-.218.676Zm-.06,1.056,1.04.176a1.707,1.707,0,0,1-.634.871,1.854,1.854,0,0,1-1.081.3A1.764,1.764,0,0,1,102,57.185a2.258,2.258,0,0,1-.389-1.361,2.186,2.186,0,0,1,.51-1.537,1.687,1.687,0,0,1,1.3-.556,1.744,1.744,0,0,1,1.387.583,2.575,2.575,0,0,1,.484,1.781h-2.6a1.058,1.058,0,0,0,.25.722.787.787,0,0,0,.6.257.622.622,0,0,0,.408-.132.817.817,0,0,0,.253-.429" transform="translate(49.159 12.363)" fill="#211915" fill-rule="evenodd"/>
    <path id="Trazado_135" data-name="Trazado 135" d="M105.382,54.426h1.042v3.942h-1.042Zm0-1.5h1.042V53.9h-1.042Z" transform="translate(52.027 11.753)" fill="#211915" fill-rule="evenodd"/>
    <path id="Trazado_136" data-name="Trazado 136" d="M110.171,57.759h-1.04v-2.01a3.119,3.119,0,0,0-.067-.824.575.575,0,0,0-.22-.29.634.634,0,0,0-.364-.1.836.836,0,0,0-.489.148.739.739,0,0,0-.3.392,3.317,3.317,0,0,0-.081.9v1.783H106.57V53.816h.966V54.4a1.629,1.629,0,0,1,1.938-.539,1.062,1.062,0,0,1,.435.317,1.2,1.2,0,0,1,.206.438,3.361,3.361,0,0,1,.056.7Z" transform="translate(52.93 12.363)" fill="#211915" fill-rule="evenodd"/>
    <path id="Trazado_137" data-name="Trazado 137" d="M112.812,57.759H111.77v-2.01a3.042,3.042,0,0,0-.067-.824.566.566,0,0,0-.22-.29.63.63,0,0,0-.364-.1.836.836,0,0,0-.489.148.748.748,0,0,0-.3.392,3.391,3.391,0,0,0-.081.9v1.783h-1.042V53.816h.966V54.4a1.631,1.631,0,0,1,1.94-.539,1.074,1.074,0,0,1,.435.317,1.167,1.167,0,0,1,.2.438,3.34,3.34,0,0,1,.058.7Z" transform="translate(54.935 12.363)" fill="#211915" fill-rule="evenodd"/>
    <path id="Trazado_138" data-name="Trazado 138" d="M112.789,55.8a1.3,1.3,0,0,0,.28.9.9.9,0,0,0,1.368,0,1.334,1.334,0,0,0,.276-.908,1.306,1.306,0,0,0-.276-.891.906.906,0,0,0-1.368,0,1.3,1.3,0,0,0-.28.9m-1.07-.056a2.135,2.135,0,0,1,.257-1.007,1.738,1.738,0,0,1,.725-.743,2.126,2.126,0,0,1,1.045-.259,1.968,1.968,0,0,1,1.466.583,2.184,2.184,0,0,1-.007,2.955,1.942,1.942,0,0,1-1.45.59,2.283,2.283,0,0,1-1.033-.246,1.665,1.665,0,0,1-.746-.718,2.4,2.4,0,0,1-.257-1.155" transform="translate(56.843 12.363)" fill="#211915" fill-rule="evenodd"/>
    <path id="Trazado_139" data-name="Trazado 139" d="M115.8,57.722l-1.588-3.942H115.3l.743,2.012.215.672c.058-.171.093-.283.107-.338.037-.111.072-.222.113-.334l.752-2.012H118.3l-1.566,3.942Z" transform="translate(58.736 12.399)" fill="#211915" fill-rule="evenodd"/>
    <path id="Trazado_140" data-name="Trazado 140" d="M119.19,55.874a6.108,6.108,0,0,1-.634.16,1.972,1.972,0,0,0-.568.181.44.44,0,0,0-.2.368.512.512,0,0,0,.164.378.574.574,0,0,0,.415.158.91.91,0,0,0,.539-.185.67.67,0,0,0,.248-.345,2.1,2.1,0,0,0,.04-.507Zm-1.4-.843-.942-.167a1.484,1.484,0,0,1,.547-.854,1.99,1.99,0,0,1,1.16-.278,2.532,2.532,0,0,1,1.037.164,1.057,1.057,0,0,1,.482.421,2.14,2.14,0,0,1,.139.933l-.016,1.214a4.415,4.415,0,0,0,.049.767,2.247,2.247,0,0,0,.187.528H119.4c-.028-.069-.06-.171-.1-.3a1.2,1.2,0,0,0-.037-.12,1.9,1.9,0,0,1-.568.391,1.615,1.615,0,0,1-.648.132,1.333,1.333,0,0,1-.956-.329,1.1,1.1,0,0,1-.35-.836,1.128,1.128,0,0,1,.16-.595,1.044,1.044,0,0,1,.445-.4,3.471,3.471,0,0,1,.829-.243,5.844,5.844,0,0,0,1.012-.255v-.107a.55.55,0,0,0-.148-.433.89.89,0,0,0-.561-.128.735.735,0,0,0-.435.109.764.764,0,0,0-.253.391" transform="translate(60.662 12.363)" fill="#211915" fill-rule="evenodd"/>
    <path id="Trazado_141" data-name="Trazado 141" d="M122.836,54.987l-1.026.183a.732.732,0,0,0-.236-.461.705.705,0,0,0-.475-.155.781.781,0,0,0-.623.269,1.382,1.382,0,0,0-.231.9,1.6,1.6,0,0,0,.234.993.775.775,0,0,0,.634.29.7.7,0,0,0,.484-.169,1.03,1.03,0,0,0,.266-.583l1.026.174a1.824,1.824,0,0,1-.611,1.068,1.9,1.9,0,0,1-1.214.361,1.8,1.8,0,0,1-1.376-.547,2.493,2.493,0,0,1,0-3.034,1.829,1.829,0,0,1,1.394-.546,1.9,1.9,0,0,1,1.142.312,1.711,1.711,0,0,1,.611.943" transform="translate(62.508 12.363)" fill="#211915" fill-rule="evenodd"/>
    <path id="Trazado_142" data-name="Trazado 142" d="M121.706,54.426h1.042v3.942h-1.042Zm0-1.5h1.042V53.9h-1.042Z" transform="translate(64.434 11.753)" fill="#211915" fill-rule="evenodd"/>
    <path id="Trazado_143" data-name="Trazado 143" d="M124.323,53.97l.517-1.109H126l-1.026,1.109Zm-.488,2.489a1.3,1.3,0,0,0,.28.9.9.9,0,0,0,1.368,0,1.334,1.334,0,0,0,.276-.908,1.306,1.306,0,0,0-.276-.891.906.906,0,0,0-1.368,0,1.3,1.3,0,0,0-.28.9m-1.07-.056a2.135,2.135,0,0,1,.257-1.007,1.738,1.738,0,0,1,.725-.743,2.126,2.126,0,0,1,1.045-.259,1.968,1.968,0,0,1,1.466.583,2.017,2.017,0,0,1,.572,1.47,2.039,2.039,0,0,1-.577,1.485,1.949,1.949,0,0,1-1.452.59,2.283,2.283,0,0,1-1.033-.246,1.665,1.665,0,0,1-.746-.718,2.4,2.4,0,0,1-.257-1.155" transform="translate(65.239 11.701)" fill="#211915" fill-rule="evenodd"/>
    <path id="Trazado_144" data-name="Trazado 144" d="M129.134,57.759h-1.04v-2.01a3.017,3.017,0,0,0-.069-.824.563.563,0,0,0-.218-.29.634.634,0,0,0-.364-.1.836.836,0,0,0-.489.148.751.751,0,0,0-.3.392,3.412,3.412,0,0,0-.079.9v1.783h-1.042V53.816h.965V54.4a1.631,1.631,0,0,1,1.94-.539,1.062,1.062,0,0,1,.435.317,1.2,1.2,0,0,1,.206.438,3.359,3.359,0,0,1,.056.7Z" transform="translate(67.342 12.363)" fill="#211915" fill-rule="evenodd"/>
    <path id="Trazado_145" data-name="Trazado 145" d="M128.2,55.429h1.042v.746a2.631,2.631,0,0,1-.077.713,1.046,1.046,0,0,1-.294.47,1.516,1.516,0,0,1-.551.326l-.2-.433a.733.733,0,0,0,.584-.781h-.5Z" transform="translate(69.305 13.652)" fill="#211915" fill-rule="evenodd"/>
    <path id="Trazado_146" data-name="Trazado 146" d="M130.363,56.65l1.049-.16a.76.76,0,0,0,.271.459.923.923,0,0,0,.57.157,1.045,1.045,0,0,0,.609-.148.336.336,0,0,0,.137-.28.285.285,0,0,0-.074-.2.846.846,0,0,0-.348-.137,5.592,5.592,0,0,1-1.6-.51,1.018,1.018,0,0,1-.468-.889,1.092,1.092,0,0,1,.4-.862,1.879,1.879,0,0,1,1.253-.35,2.187,2.187,0,0,1,1.2.266,1.347,1.347,0,0,1,.542.783l-.98.183a.607.607,0,0,0-.241-.356.874.874,0,0,0-.505-.123,1.137,1.137,0,0,0-.593.114.244.244,0,0,0-.12.211.228.228,0,0,0,.1.19,3.915,3.915,0,0,0,.977.294,2.91,2.91,0,0,1,1.167.465.967.967,0,0,1,.329.778,1.19,1.19,0,0,1-.454.931,2.016,2.016,0,0,1-1.341.391,2.2,2.2,0,0,1-1.274-.326,1.5,1.5,0,0,1-.616-.884" transform="translate(71.013 12.363)" fill="#211915" fill-rule="evenodd"/>
    <path id="Trazado_147" data-name="Trazado 147" d="M132.978,54.426h1.04v3.942h-1.04Zm0-1.5h1.04V53.9h-1.04Z" transform="translate(73.001 11.753)" fill="#211915" fill-rule="evenodd"/>
    <path id="Trazado_148" data-name="Trazado 148" d="M136.647,55.457a1.022,1.022,0,0,0-.234-.69.746.746,0,0,0-1.1.014.957.957,0,0,0-.22.676Zm-.062,1.056,1.042.176a1.717,1.717,0,0,1-.634.871,1.858,1.858,0,0,1-1.081.3,1.759,1.759,0,0,1-1.521-.674A2.259,2.259,0,0,1,134,55.825a2.186,2.186,0,0,1,.512-1.537,1.685,1.685,0,0,1,1.3-.556,1.741,1.741,0,0,1,1.385.583,2.575,2.575,0,0,1,.486,1.781h-2.6a1.058,1.058,0,0,0,.25.722.781.781,0,0,0,.6.257.624.624,0,0,0,.41-.132.815.815,0,0,0,.252-.429" transform="translate(73.779 12.363)" fill="#211915" fill-rule="evenodd"/>
    <path id="Trazado_149" data-name="Trazado 149" d="M136.535,53.816h.957v.539a1.548,1.548,0,0,1,1.227-.623,1.318,1.318,0,0,1,.656.157,1.19,1.19,0,0,1,.456.472,1.841,1.841,0,0,1,.56-.472,1.38,1.38,0,0,1,.642-.157,1.432,1.432,0,0,1,.736.178,1.09,1.09,0,0,1,.449.517,2.237,2.237,0,0,1,.106.815v2.517h-1.04V55.51a1.672,1.672,0,0,0-.107-.757.5.5,0,0,0-.445-.222.725.725,0,0,0-.414.132.742.742,0,0,0-.278.392,2.829,2.829,0,0,0-.086.813v1.89h-1.038V55.6a2.85,2.85,0,0,0-.058-.741.463.463,0,0,0-.171-.25.545.545,0,0,0-.317-.081.764.764,0,0,0-.433.128.721.721,0,0,0-.276.375,2.761,2.761,0,0,0-.083.811v1.913h-1.042Z" transform="translate(75.704 12.363)" fill="#211915" fill-rule="evenodd"/>
    <path id="Trazado_150" data-name="Trazado 150" d="M141.421,55.726a1.547,1.547,0,0,0,.262.987.806.806,0,0,0,.642.317.744.744,0,0,0,.6-.292,1.518,1.518,0,0,0,.241-.959,1.452,1.452,0,0,0-.246-.924.769.769,0,0,0-.616-.3.79.79,0,0,0-.632.3,1.315,1.315,0,0,0-.253.876m-1.024-1.91h.972V54.4a1.441,1.441,0,0,1,.512-.479,1.415,1.415,0,0,1,.716-.185,1.505,1.505,0,0,1,1.165.54,2.184,2.184,0,0,1,.479,1.5,2.241,2.241,0,0,1-.484,1.537,1.5,1.5,0,0,1-1.169.549,1.34,1.34,0,0,1-.593-.13,2.014,2.014,0,0,1-.558-.445v1.973H140.4Z" transform="translate(78.639 12.363)" fill="#211915" fill-rule="evenodd"/>
    <path id="Trazado_151" data-name="Trazado 151" d="M144.069,57.759h-1.042V53.816h.966v.56a1.662,1.662,0,0,1,.447-.521.835.835,0,0,1,.452-.123,1.331,1.331,0,0,1,.686.2l-.322.91a.9.9,0,0,0-.491-.172.58.58,0,0,0-.37.121.807.807,0,0,0-.241.436,6.329,6.329,0,0,0-.086,1.32Z" transform="translate(80.638 12.363)" fill="#211915" fill-rule="evenodd"/>
    <path id="Trazado_152" data-name="Trazado 152" d="M147.2,55.457a1.013,1.013,0,0,0-.234-.69.746.746,0,0,0-1.1.014.957.957,0,0,0-.218.676Zm-.06,1.056,1.04.176a1.707,1.707,0,0,1-.634.871,1.854,1.854,0,0,1-1.081.3,1.764,1.764,0,0,1-1.521-.674,2.258,2.258,0,0,1-.389-1.361,2.185,2.185,0,0,1,.51-1.537,1.687,1.687,0,0,1,1.3-.556,1.738,1.738,0,0,1,1.385.583,2.566,2.566,0,0,1,.486,1.781h-2.6a1.058,1.058,0,0,0,.25.722.784.784,0,0,0,.6.257.622.622,0,0,0,.408-.132.816.816,0,0,0,.253-.429" transform="translate(81.802 12.363)" fill="#211915" fill-rule="evenodd"/>
    <rect id="Rectángulo_1518" data-name="Rectángulo 1518" width="1.042" height="1.04" transform="translate(230.887 69.082)" fill="#211915"/>
    <path id="Trazado_153" data-name="Trazado 153" d="M36.929,37.466h21.3v5.6H51.078V60.13h-7V43.069H36.929Z" transform="translate(0 0)" fill="#254892" fill-rule="evenodd"/>
    <path id="Trazado_154" data-name="Trazado 154" d="M55.562,49.427a5.01,5.01,0,0,0,.885,3.26A2.89,2.89,0,0,0,60.9,52.7a5.172,5.172,0,0,0,.869-3.335,4.881,4.881,0,0,0-.878-3.189,2.723,2.723,0,0,0-2.17-1.045,2.829,2.829,0,0,0-2.262,1.061,4.942,4.942,0,0,0-.894,3.235m-6.3.007a8.236,8.236,0,0,1,2.531-6.2,9.441,9.441,0,0,1,6.839-2.439q4.924,0,7.443,2.865A8.317,8.317,0,0,1,68.1,49.341a8.257,8.257,0,0,1-2.508,6.218,9.575,9.575,0,0,1-6.94,2.422,9.718,9.718,0,0,1-6.392-2.012,8.092,8.092,0,0,1-2.994-6.535" transform="translate(9.374 2.529)" fill="#254892" fill-rule="evenodd"/>
    <path id="Trazado_155" data-name="Trazado 155" d="M69.719,37.466V43.7h3.451v4.622H69.719v5.812a3.131,3.131,0,0,0,.2,1.389,1.154,1.154,0,0,0,1.084.524,7.016,7.016,0,0,0,1.954-.4L73.422,60a20.484,20.484,0,0,1-4.358.51,7.584,7.584,0,0,1-3.464-.6,3.676,3.676,0,0,1-1.646-1.83A10.721,10.721,0,0,1,63.42,54.1V48.324H61.109V43.7H63.42V40.69Z" transform="translate(18.378 0)" fill="#254892" fill-rule="evenodd"/>
    <path id="Trazado_156" data-name="Trazado 156" d="M81.2,49.782q-1.3.47-2.71.829a6.231,6.231,0,0,0-2.431,1.016,1.6,1.6,0,0,0-.526,1.17,1.581,1.581,0,0,0,.519,1.225,2.171,2.171,0,0,0,1.524.479,3.887,3.887,0,0,0,1.957-.516,3.124,3.124,0,0,0,1.287-1.258A4.259,4.259,0,0,0,81.2,50.8Zm-5.446-3.291-6.016-.632a6.742,6.742,0,0,1,.982-2.487A5.4,5.4,0,0,1,72.562,41.8a7.71,7.71,0,0,1,2.376-.743,19.069,19.069,0,0,1,3.274-.262,26.036,26.036,0,0,1,4.541.315,5.845,5.845,0,0,1,2.857,1.324,4.654,4.654,0,0,1,1.264,1.975,7.134,7.134,0,0,1,.465,2.438V54.1a8.713,8.713,0,0,0,.146,1.818,8.165,8.165,0,0,0,.641,1.679H82.23a5.868,5.868,0,0,1-.463-.957,7.108,7.108,0,0,1-.216-1.037,8.133,8.133,0,0,1-2.459,1.7,10.242,10.242,0,0,1-3.879.678,6.476,6.476,0,0,1-4.46-1.362,4.342,4.342,0,0,1-1.522-3.365,4.422,4.422,0,0,1,1.1-3.085,7.425,7.425,0,0,1,4.052-1.8q3.54-.713,4.59-1a21.179,21.179,0,0,0,2.228-.752,2.217,2.217,0,0,0-.48-1.626,2.4,2.4,0,0,0-1.681-.463,4.308,4.308,0,0,0-2.313.5,2.725,2.725,0,0,0-.972,1.464" transform="translate(24.55 2.529)" fill="#254892" fill-rule="evenodd"/>
    <rect id="Rectángulo_1519" data-name="Rectángulo 1519" width="6.299" height="22.664" transform="translate(115.865 37.467)" fill="#254892"/>
    <path id="Trazado_157" data-name="Trazado 157" d="M94.891,47.151h1.728a4.461,4.461,0,0,0,2.862-.7,2.268,2.268,0,0,0,.822-1.806,2.506,2.506,0,0,0-.715-1.811,3.719,3.719,0,0,0-2.689-.744H94.891Zm-7.028-9.685h11.65q3.81,0,5.7,1.811a6.788,6.788,0,0,1,1.9,5.157,7.005,7.005,0,0,1-2.068,5.373q-2.067,1.933-6.31,1.934H94.891V60.13H87.863Z" transform="translate(38.712 0)" fill="#8e8e8b" fill-rule="evenodd"/>
    <path id="Trazado_158" data-name="Trazado 158" d="M111.947,49.782q-1.3.47-2.709.829a6.218,6.218,0,0,0-2.431,1.016,1.635,1.635,0,0,0-.009,2.4,2.176,2.176,0,0,0,1.526.479,3.887,3.887,0,0,0,1.957-.516,3.134,3.134,0,0,0,1.287-1.258,4.261,4.261,0,0,0,.378-1.929ZM106.5,46.491l-6.014-.632a6.742,6.742,0,0,1,.982-2.487,5.413,5.413,0,0,1,1.843-1.573,7.723,7.723,0,0,1,2.378-.743,19.069,19.069,0,0,1,3.274-.262,26.037,26.037,0,0,1,4.541.315,5.832,5.832,0,0,1,2.855,1.324,4.64,4.64,0,0,1,1.265,1.975,7.13,7.13,0,0,1,.463,2.438V54.1a8.691,8.691,0,0,0,.148,1.818,8.165,8.165,0,0,0,.641,1.679h-5.894a5.91,5.91,0,0,1-.465-.957,7.413,7.413,0,0,1-.215-1.037,8.154,8.154,0,0,1-2.459,1.7,10.252,10.252,0,0,1-3.881.678,6.482,6.482,0,0,1-4.46-1.362,4.348,4.348,0,0,1-1.522-3.365,4.415,4.415,0,0,1,1.1-3.085,7.419,7.419,0,0,1,4.05-1.8q3.543-.713,4.592-1a21.021,21.021,0,0,0,2.226-.752,2.217,2.217,0,0,0-.479-1.626,2.4,2.4,0,0,0-1.681-.463,4.308,4.308,0,0,0-2.313.5,2.727,2.727,0,0,0-.973,1.464" transform="translate(47.922 2.529)" fill="#8e8e8b" fill-rule="evenodd"/>
    <path id="Trazado_159" data-name="Trazado 159" d="M124.982,51.176l5.982.664a8.44,8.44,0,0,1-1.623,3.251,7.551,7.551,0,0,1-2.885,2.131,11.293,11.293,0,0,1-4.462.759,16.48,16.48,0,0,1-4.354-.486,7.63,7.63,0,0,1-2.992-1.579,7.939,7.939,0,0,1-1.964-2.561,9,9,0,0,1-.713-3.9,9.175,9.175,0,0,1,.868-4.224,7.658,7.658,0,0,1,1.732-2.221,8.007,8.007,0,0,1,2.258-1.461,12.539,12.539,0,0,1,4.722-.757,10.9,10.9,0,0,1,6.134,1.434,7.577,7.577,0,0,1,2.964,4.2l-5.921.792a2.742,2.742,0,0,0-1.014-1.588,3.28,3.28,0,0,0-1.975-.535,3.179,3.179,0,0,0-2.531,1.123,5.069,5.069,0,0,0-.97,3.392,4.417,4.417,0,0,0,.959,3.077,3.156,3.156,0,0,0,2.445,1.051,3.379,3.379,0,0,0,2.079-.628,3.744,3.744,0,0,0,1.26-1.934" transform="translate(57.035 2.529)" fill="#8e8e8b" fill-rule="evenodd"/>
    <path id="Trazado_160" data-name="Trazado 160" d="M124.179,37.466H130.6V49.137l4.7-5.435h7.741l-5.886,5.754,6.234,10.675h-7.088l-3.333-6.584L130.6,55.861v4.27h-6.426Z" transform="translate(66.313 0)" fill="#8e8e8b" fill-rule="evenodd"/>
    <path id="Trazado_161" data-name="Trazado 161" d="M136.606,49.52h.63a.916.916,0,0,0,.315-.042.324.324,0,0,0,.172-.134.366.366,0,0,0,.06-.2.333.333,0,0,0-.114-.259.529.529,0,0,0-.361-.1h-.7Zm-.294,1.241V48.538h.986a1.315,1.315,0,0,1,.449.06.494.494,0,0,1,.248.213.63.63,0,0,1,.093.334.569.569,0,0,1-.153.4.79.79,0,0,1-.473.206.781.781,0,0,1,.178.109,1.493,1.493,0,0,1,.243.3l.384.605H137.9l-.292-.463c-.084-.134-.157-.234-.213-.306a.642.642,0,0,0-.148-.148.5.5,0,0,0-.134-.06.889.889,0,0,0-.164-.011h-.341v.987Z" transform="translate(75.535 8.415)" fill="#211915" fill-rule="evenodd"/>
    <path id="Trazado_162" data-name="Trazado 162" d="M135.557,50.068a2.079,2.079,0,1,1,2.08,2.08A2.081,2.081,0,0,1,135.557,50.068Z" transform="translate(74.961 7.997)" fill="none" stroke="#211915" stroke-miterlimit="3.864" stroke-width="0.502"/>
  </g>
</svg>
